<svg width="30" height="30" viewBox="0 0 46 46" fill="none" xmlns="http://www.w3.org/2000/svg">
<mask id="mask0_49_42" style="mask-type:luminance" maskUnits="userSpaceOnUse" x="6" y="6" width="34" height="34">
<path fill-rule="evenodd" clip-rule="evenodd" d="M29.1076 27.7372H30.6218L38.7484 35.9022C39.5343 36.688 39.5343 37.9722 38.7484 38.758C37.9626 39.5438 36.6784 39.5438 35.8926 38.758L27.7468 30.6122V29.098L27.2293 28.5613C24.5459 30.8613 20.8851 32.0497 16.9943 31.398C11.6659 30.4972 7.41094 26.0505 6.75927 20.6838C5.7626 12.5763 12.5859 5.75301 20.6934 6.74968C26.0601 7.40135 30.5068 11.6563 31.4076 16.9847C32.0593 20.8755 30.8709 24.5363 28.5709 27.2197L29.1076 27.7372ZM10.4968 19.1122C10.4968 23.8847 14.3493 27.7372 19.1218 27.7372C23.8943 27.7372 27.7468 23.8847 27.7468 19.1122C27.7468 14.3397 23.8943 10.4872 19.1218 10.4872C14.3493 10.4872 10.4968 14.3397 10.4968 19.1122Z" fill="white"/>
</mask>
<g mask="url(#mask0_49_42)">
<rect width="46" height="46" fill="white"/>
</g>
</svg>
