<svg width="40" height="41" viewBox="0 0 40 41" fill="none" xmlns="http://www.w3.org/2000/svg">
<mask id="mask0_49_74" style="mask-type:alpha" maskUnits="userSpaceOnUse" x="3" y="4" width="37" height="37">
<path d="M17.5637 38.5111V31.5687C17.5637 29.3926 19.3278 27.6285 21.5039 27.6285C23.68 27.6285 25.444 29.3926 25.444 31.5687V38.5111C25.444 39.7082 26.3306 40.6876 27.4141 40.6876H33.3244C34.408 40.6876 35.2945 39.7082 35.2945 38.5111V26.6246C35.2945 24.7749 36.794 23.2754 38.6437 23.2754C39.5499 23.2754 39.9833 22.0348 39.2938 21.3819L22.8238 4.99264C22.0752 4.25262 20.9325 4.25262 20.1839 4.99264L3.71392 21.3819C3.04409 22.0348 3.45781 23.2754 4.36405 23.2754C6.21374 23.2754 7.71321 24.7749 7.71321 26.6246V38.5111C7.71321 39.7082 8.59975 40.6876 9.68331 40.6876H15.5936C16.6771 40.6876 17.5637 39.7082 17.5637 38.5111Z" fill="black"/>
</mask>
<g mask="url(#mask0_49_74)">
<rect x="-1.93335" y="0.966675" width="47.3667" height="48.3333" fill="#224E67"/>
</g>
</svg>

